# xmcd CD database file
#
# Track frame offsets:
#	150
#	27727
#	46425
#	71908
#	91678
#	119261
#	142677
#	171603
#	181101
#	203516
#	218919
#	254486
#	269142
#	305194
#	313297
#	339324
#
# Disc length: 4789 seconds
#
# Revision: 0
# Processed by: cddbd v1.5.1PL0 Copyright (c) Steve Scherf et al.
# Submitted via: CDex 1.51
#
DISCID=fb12b310
DTITLE=Modern Jazz Quartet - Live At The Lighthouse (1-7) Blues On Bach (8-16)
DYEAR=1900
DGENRE=Jazz
TTITLE0=The Modern Jazz Quartet - The Spiritual (Live At The Lighthouse 1967)
TTITLE1=The Modern Jazz Quartet - Baseball
TTITLE2=The Modern Jazz Quartet - The Shadow Of Your Smile
TTITLE3=The Modern Jazz Quartet - Intima
TTITLE4=The Modern Jazz Quartet - Novamo
TTITLE5=The Modern Jazz Quartet - For Someone I Love
TTITLE6=The Modern Jazz Quartet - What's new
TTITLE7=01 - Regret (Blues On Bach 1973)
TTITLE8=02 - Blues In B Flat
TTITLE9=03 - Rise Up In The Morning
TTITLE10=04 - Blues In A Minor
TTITLE11=05 - Precious Joy
TTITLE12=06 - Blues In C Minor
TTITLE13=07 - Don't Stop The Train
TTITLE14=08 - Blues In H (B)
TTITLE15=09 - Tears From The Children
EXTD=
EXTT0=
EXTT1=
EXTT2=
EXTT3=
EXTT4=
EXTT5=
EXTT6=
EXTT7=
EXTT8=
EXTT9=
EXTT10=
EXTT11=
EXTT12=
EXTT13=
EXTT14=
EXTT15=
PLAYORDER=
